<svg width="24" height="19" viewBox="0 0 24 19" fill="none" xmlns="http://www.w3.org/2000/svg">
<path d="M9.25457 18.1292C10.6526 17.9237 11.751 16.7937 11.9174 15.3898H15.6122C15.8452 17.1704 17.4429 18.4031 19.1737 18.1292C20.5717 17.9237 21.6702 16.7937 21.8366 15.3898H21.8699C22.8685 15.3898 23.6673 14.568 23.6673 13.5408V13.0956V9.46599V7.95935L18.741 2.37793H16.8104H12.7163C13.2489 3.26822 13.5817 4.29547 13.5817 5.42545C13.5817 8.5757 11.1186 11.1096 8.05629 11.1096C6.35871 11.1096 4.86085 10.322 3.82899 9.08933V12.6505H1.9317V13.8147H3.86228V14.1914H0.333984V15.3556H5.693C5.95928 17.1362 7.52371 18.3689 9.25457 18.1292ZM20.0392 15.2529C19.9393 15.7322 19.5399 16.1432 19.0739 16.2459C18.0753 16.4856 17.1766 15.5953 17.4096 14.5338C17.5094 14.0544 17.9089 13.6435 18.3749 13.5408C19.4067 13.3011 20.3055 14.1914 20.0392 15.2529ZM15.5789 5.59666C15.5789 5.11728 15.8119 4.63789 16.2446 4.3982C16.7772 4.12426 17.3763 4.22699 17.7757 4.63789L18.4082 5.28849L20.9379 7.89087L20.8713 8.88388C20.8713 8.88388 19.8062 8.88388 18.9075 8.88388C18.8742 8.88388 18.8409 8.88388 18.8409 8.88388H16.877C16.178 8.88388 15.6122 8.30177 15.6122 7.58269V5.59666H15.5789ZM7.49043 14.568C7.59029 14.0886 7.98971 13.6777 8.45572 13.575C9.45429 13.3353 10.353 14.2256 10.12 15.2871C10.0201 15.7665 9.62072 16.1774 9.15472 16.2801C8.15614 16.4856 7.25743 15.5953 7.49043 14.568Z" fill="#D92329"/>
<path d="M8.65556 0.700257C8.45584 0.666016 8.25613 0.666016 8.05641 0.666016C5.49341 0.666016 3.42969 2.78901 3.42969 5.42563C3.42969 8.06226 5.49341 10.1853 8.05641 10.1853C8.25613 10.1853 8.45584 10.1853 8.62227 10.151C10.919 9.84283 12.6831 7.8568 12.6831 5.42563C12.6831 2.99446 10.919 1.00843 8.65556 0.700257ZM7.52384 2.00145C8.02313 2.00145 8.38927 2.41235 8.38927 2.89174C8.38927 3.37112 7.98984 3.81627 7.52384 3.81627C7.05784 3.81627 6.65841 3.40536 6.65841 2.89174C6.65841 2.37811 7.02455 2.00145 7.52384 2.00145ZM8.75541 8.88406C8.25613 8.88406 7.88998 8.47316 7.88998 7.99377C7.88998 7.51439 8.28941 7.10348 8.75541 7.10348C9.2547 7.10348 9.62084 7.51439 9.62084 7.99377C9.62084 8.47316 9.22141 8.88406 8.75541 8.88406ZM9.58756 2.99446L10.4197 3.85051L6.52527 7.8568L6.12584 7.4459L5.72641 7.035L9.58756 2.99446Z" fill="#231F20"/>
</svg>
