<svg width="27" height="30" viewBox="0 0 27 30" fill="none" xmlns="http://www.w3.org/2000/svg">
<path d="M11.2782 29.4C13.5359 29.4 15.5883 28.7287 17.3329 27.5874C16.9566 26.849 16.7172 26.0098 16.7172 25.1371C16.7172 22.2168 19.1117 19.8336 22.0877 19.8C22.1219 19.4643 22.1561 19.0951 22.1561 18.7259C22.1561 12.8182 17.2987 8.05176 11.2782 8.05176C5.25779 8.08532 0.400391 12.8518 0.400391 18.7594C0.400391 24.6336 5.25779 29.4 11.2782 29.4ZM11.2782 12.3483C14.87 12.3483 17.8118 15.2014 17.8118 18.7594C17.8118 22.3175 14.9042 25.1706 11.2782 25.1706C7.6865 25.1706 4.74469 22.3175 4.74469 18.7594C4.74469 15.2014 7.6865 12.3483 11.2782 12.3483Z" fill="#D92329"/>
<path d="M19.9673 10.7031V0.599609H15.623V7.81639C15.9651 7.95066 16.3072 8.08492 16.6493 8.25276C17.8807 8.89052 19.0095 9.69611 19.9673 10.7031Z" fill="#D92329"/>
<path d="M10.1835 7.04455C10.5255 7.01098 10.9018 6.97742 11.2781 6.97742C12.0306 6.97742 12.749 7.04455 13.4673 7.17882V2.74805H10.2177H9.12305V7.21238C9.15725 7.21238 9.19146 7.21238 9.25988 7.17882C9.53353 7.14525 9.8756 7.07812 10.1835 7.04455Z" fill="#D92329"/>
<path d="M3.06874 10.2329C3.17136 10.1322 3.30819 10.0315 3.44502 9.93084C3.47923 9.89727 3.54764 9.8637 3.58185 9.79657C4.57385 8.95741 5.70269 8.28608 6.96835 7.81615V4.8623H3.65026H2.58984V10.7029L2.62405 10.6693C2.76088 10.5015 2.89771 10.3672 3.06874 10.2329Z" fill="#D92329"/>
<path d="M22.7041 20.9076C22.5331 20.874 22.3278 20.874 22.1568 20.874C19.7623 20.874 17.8125 22.7873 17.8125 25.137C17.8125 27.4866 19.7623 29.3999 22.1568 29.3999C22.3278 29.3999 22.5331 29.3999 22.7041 29.3663C24.8592 29.0978 26.5011 27.3188 26.5011 25.137C26.5011 22.9551 24.8592 21.1761 22.7041 20.9076ZM21.6437 22.0824C22.0884 22.0824 22.4647 22.4516 22.4647 22.888C22.4647 23.3244 22.0884 23.6936 21.6437 23.6936C21.199 23.6936 20.8227 23.3244 20.8227 22.888C20.8227 22.4516 21.199 22.0824 21.6437 22.0824ZM22.8067 28.2251C22.362 28.2251 21.9858 27.8558 21.9858 27.4195C21.9858 26.9831 22.362 26.6139 22.8067 26.6139C23.2514 26.6139 23.6277 26.9831 23.6277 27.4195C23.6277 27.8894 23.2514 28.2251 22.8067 28.2251ZM20.7201 27.3188L19.9675 26.5803L23.6277 22.9887L24.004 23.3579L24.3803 23.7272L20.7201 27.3188Z" fill="#231F20"/>
<path d="M14.6312 18.7928V18.7257C14.6312 17.6516 14.3233 16.7789 13.7418 16.1075C13.3998 15.7383 12.9893 15.4698 12.5446 15.3019V14.5635H11.6894V15.1341C11.4842 15.1341 11.3131 15.1341 11.1079 15.1341V14.5635H10.2527V15.2684C9.7738 15.4362 9.32911 15.7047 8.98704 16.074C8.40552 16.7117 8.09766 17.5845 8.09766 18.6921C8.09766 19.7663 8.43973 20.6054 9.08966 21.2096H8.40552V22.1495H13.8444V21.2096H11.1421C10.6974 21.1425 10.2527 20.9411 9.91063 20.5719C9.46594 20.1355 9.2607 19.4977 9.2607 18.6921C9.2607 17.853 9.46594 17.2152 9.84222 16.7117C9.97905 16.5439 10.1159 16.4432 10.2527 16.3089V18.7928H11.1079V16.0404C11.2789 16.0068 11.4842 16.0068 11.6894 16.0404V18.8264H12.5446V16.3761C12.6814 16.4768 12.784 16.5775 12.9209 16.7117C13.2971 17.1817 13.5024 17.853 13.5024 18.6921V18.7593H14.6312V18.7928Z" fill="#231F20"/>
</svg>
